{"title":"Snoop Doggy Dogg - Doggystyle [24-bit 44.1kHz flac] MC Lurken","uid":11735182,"size":690193242,"categoryP":"audio","categoryS":"flac","magnet":"?xt=urn:btih:fb0198863f6d2ae992234ba0568a046b44c3fb67&amp;dn=Snoop+Doggy+Dogg+-+Doggystyle+%5B24-bit+44.1kHz+flac%5D+MC+Lurken&amp;tr=udp%3A%2F%2Ftracker.openbittorrent.com%3A80&amp;tr=udp%3A%2F%2Fopen.demonii.com%3A1337&amp;tr=udp%3A%2F%2Ftracker.coppersurfer.tk%3A6969&amp;tr=udp%3A%2F%2Fexodus.desync.com%3A6969","seeders":2,"leechers":3,"uploader":"beavis39","files":29,"time":1425539133,"description":"Snoop Doggy Dogg - Doggystyle [24-bit 44.1kHz flac] MC Lurken\n\n\n\n1 - Bathtub\n2 - G Funk Intro\n3 - Gin and Juice\n4 - W Balls\n5 - Tha Shiznit\n6 - Domino (Interlude)\n7 - Lodi Dodi\n8 - Murder Was the Case (Death After Visualizing Eternity)\n9 - Serial Killa\n10 - Who Am I (What's My Name?)\n11 - For All My Niggaz &amp; Bitches\n12 - Ain't No Fun (If the Homies Can't Have None)\n13 - Chronic Relief (Interlude)\n14 - Doggy Dogg World\n15 - Class Room (Interlude)\n16 - Gz and Hustlas\n17 - Checkin' (Interlude)\n18 - Gz Up, Hoes Down\n19 - Pump Pump\n\n\n\n[center]foobar2000 1.3.7 / Dynamic Range Meter 1.1.1\nlog date: 2015-03-05 00:18:05\n\n--------------------------------------------------------------------------------\nAnalyzed: Snoop Doggy Dogg / Doggystyle\n--------------------------------------------------------------------------------\n\nDR         Peak         RMS     Duration Track\n--------------------------------------------------------------------------------\nDR14      -0.21 dB   -16.38 dB      1:51 01-Bathtub\nDR9        0.00 dB    -9.89 dB      2:25 02-G Funk Intro\nDR10       0.00 dB   -10.25 dB      3:31 03-Gin And Juice\nDR13      -0.20 dB   -14.35 dB      0:37 04-W Balls\nDR10       0.00 dB   -10.14 dB      4:04 05-Tha Shiznit\nDR12      -0.13 dB   -14.13 dB      0:37 06-Domino Intro\nDR12       0.00 dB   -12.74 dB      4:25 07-Lodi Dodi\nDR9        0.00 dB   -10.41 dB      3:38 08-Murder Was The Case\nDR10       0.00 dB   -10.85 dB      3:36 09-Serial Killa\nDR9        0.00 dB    -9.38 dB      4:07 10-Who Am I (What's My Name ?)\nDR10       0.00 dB   -10.19 dB      4:43 11-For All My Niggaz &amp; Bitches\nDR9        0.00 dB   -10.11 dB      4:06 12-Ain't No Fun\nDR12       0.00 dB   -15.42 dB      0:36 13-Chronic Relief Intro\nDR10       0.00 dB   -10.25 dB      5:05 14-Doggy Dogg World\nDR17      -0.13 dB   -18.90 dB      0:44 15-Class Room Intro\nDR8        0.00 dB    -9.02 dB      3:51 16-Gz And Hustlas\nDR15      -0.13 dB   -18.96 dB      0:56 17-Checkin'\nDR10       0.00 dB   -11.78 dB      2:21 18-Gz Up Hoes Down\nDR9        0.00 dB    -9.54 dB      3:44 19-Pump Pump\n--------------------------------------------------------------------------------\n\nNumber of tracks:  19\nOfficial DR value: DR11\n\nSamplerate:        44100 Hz\nChannels:          2\nBits per sample:   24\nBitrate:           1677 kbps\nCodec:             FLAC","torrent":{"xt":"urn:btih:fb0198863f6d2ae992234ba0568a046b44c3fb67","amp;dn":"Snoop+Doggy+Dogg+-+Doggystyle+%5B24-bit+44.1kHz+flac%5D+MC+Lurken","amp;tr":["udp%3A%2F%2Ftracker.openbittorrent.com%3A80","udp%3A%2F%2Fopen.demonii.com%3A1337","udp%3A%2F%2Ftracker.coppersurfer.tk%3A6969","udp%3A%2F%2Fexodus.desync.com%3A6969"],"infoHash":"fb0198863f6d2ae992234ba0568a046b44c3fb67","infoHashBuffer":{"type":"Buffer","data":[251,1,152,134,63,109,42,233,146,35,75,160,86,138,4,107,68,195,251,103]},"announce":[],"urlList":[]}}